<svg width="12" height="15" viewBox="0 0 12 15" fill="none" xmlns="http://www.w3.org/2000/svg">
<g id="Group">
<g id="Group_2">
<path id="Vector" d="M10.5165 4.72417C10.4865 4.36309 10.336 4.0321 10.0953 3.79137C9.85456 3.55065 9.53862 3.4002 9.16249 3.4002H8.3651V2.70812C8.3651 1.95587 8.06419 1.27884 7.5677 0.797392C7.07121 0.300903 6.39418 0 5.65697 0C4.90471 0 4.22768 0.300903 3.74624 0.797392C3.24975 1.27884 2.94885 1.95587 2.94885 2.70812V3.4002H2.15145C1.77533 3.4002 1.45938 3.55065 1.21866 3.79137C0.977934 4.0321 0.827482 4.36309 0.797392 4.72417L0 13.6309C0 13.676 0 13.7212 0 13.7362C0 14.0672 0.135406 14.3832 0.376128 14.6088C0.601805 14.8195 0.902708 14.9699 1.21866 15H1.2337C1.27884 15 1.32397 15 1.35406 15H9.95988C9.98997 15 10.0351 15 10.0802 15C10.4112 14.9699 10.7121 14.8195 10.9378 14.6088C11.1785 14.3832 11.3139 14.0672 11.3139 13.7212C11.3139 13.6911 11.3139 13.661 11.3139 13.6158L10.5165 4.72417ZM3.77633 2.70812C3.77633 2.18154 3.98696 1.71515 4.333 1.36911C4.67904 1.02307 5.14544 0.812437 5.67202 0.812437C6.1986 0.812437 6.66499 1.02307 7.01103 1.36911C7.35707 1.71515 7.5677 2.18154 7.5677 2.70812V3.4002H3.77633V2.70812ZM10.4714 13.7362C10.4714 13.8566 10.4263 13.9619 10.336 14.0371C10.2457 14.1274 10.1103 14.1876 9.98997 14.2026C9.98997 14.2026 9.97492 14.2026 9.94483 14.2026H1.35406C1.32397 14.2026 1.30893 14.2026 1.30893 14.2026H1.29388C1.15848 14.1876 1.03811 14.1274 0.947843 14.0371C0.857573 13.9619 0.812437 13.8566 0.812437 13.7362V13.6911L1.60983 4.7994C1.62487 4.6339 1.7001 4.48345 1.80542 4.37813C1.89569 4.28786 2.01605 4.22768 2.15145 4.22768H2.94885V6.06319C2.94885 6.28887 3.12939 6.46941 3.35506 6.46941C3.58074 6.46941 3.76128 6.28887 3.76128 6.06319V4.22768H7.52257V6.06319C7.52257 6.28887 7.70311 6.46941 7.92879 6.46941C8.15446 6.46941 8.335 6.28887 8.335 6.06319V4.22768H9.1324C9.2678 4.22768 9.38816 4.28786 9.47843 4.37813C9.58375 4.48345 9.65898 4.6339 9.67402 4.7994L10.4714 13.7061V13.7362Z" fill="#4B4B4B"/>
</g>
</g>
</svg>
