<svg width="28" height="28" viewBox="0 0 28 28" fill="none" xmlns="http://www.w3.org/2000/svg">
<g id="fi_2767192">
<path id="Right" d="M14.5 2C7.60762 2 2 7.60762 2 14.5C2 21.3924 7.60762 27 14.5 27C21.3924 27 27 21.3924 27 14.5C27 7.60762 21.3924 2 14.5 2ZM14.5 25.4375C8.46895 25.4375 3.5625 20.5311 3.5625 14.5C3.5625 8.46895 8.46895 3.5625 14.5 3.5625C20.5311 3.5625 25.4375 8.46895 25.4375 14.5C25.4375 20.5311 20.5311 25.4375 14.5 25.4375ZM19.7398 13.9477C20.0451 14.2529 20.0451 14.7473 19.7398 15.0523L15.8336 18.9586C15.6811 19.1111 15.4811 19.1875 15.2812 19.1875C15.0814 19.1875 14.8814 19.1111 14.7289 18.9586C14.4236 18.6533 14.4236 18.159 14.7289 17.8539L17.3016 15.2812H9.8125C9.38105 15.2812 9.03125 14.9318 9.03125 14.5C9.03125 14.0682 9.38105 13.7188 9.8125 13.7188H17.3016L14.7289 11.1461C14.4236 10.8408 14.4236 10.3465 14.7289 10.0414C15.0342 9.73633 15.5285 9.73613 15.8336 10.0414L19.7398 13.9477Z" fill="black"/>
</g>
</svg>
