<svg width="24" height="24" viewBox="0 0 24 24" fill="none" xmlns="http://www.w3.org/2000/svg">
<g id="Group">
<g id="Group_2">
<path id="Vector" fillRule="evenodd" clipRule="evenodd" d="M17.3824 11.0625H14.1484C13.6643 11.0625 13.2734 10.6705 13.2734 10.1875C13.2734 9.7045 13.6643 9.3125 14.1484 9.3125H17.3824C17.8654 9.3125 18.2574 9.7045 18.2574 10.1875C18.2574 10.6705 17.8654 11.0625 17.3824 11.0625Z" fill="#122C65"/>
<path id="Vector_2" fillRule="evenodd" clipRule="evenodd" d="M6.01357 21.5596C5.88174 21.5596 5.77441 21.6669 5.77441 21.7987C5.77441 22.0636 6.25391 22.0636 6.25391 21.7987C6.25391 21.6669 6.14541 21.5596 6.01357 21.5596ZM6.01357 23.3096C5.18057 23.3096 4.50391 22.6317 4.50391 21.7987C4.50391 20.9657 5.18057 20.2891 6.01357 20.2891C6.84657 20.2891 7.52441 20.9657 7.52441 21.7987C7.52441 22.6317 6.84657 23.3096 6.01357 23.3096Z" fill="#122C65"/>
<path id="Vector_3" fillRule="evenodd" clipRule="evenodd" d="M19.1737 21.5596C19.0431 21.5596 18.9357 21.6669 18.9357 21.7987C18.9369 22.0659 19.4152 22.0636 19.4141 21.7987C19.4141 21.6669 19.3056 21.5596 19.1737 21.5596ZM19.1737 23.3096C18.3407 23.3096 17.6641 22.6317 17.6641 21.7987C17.6641 20.9657 18.3407 20.2891 19.1737 20.2891C20.0079 20.2891 20.6857 20.9657 20.6857 21.7987C20.6857 22.6317 20.0079 23.3096 19.1737 23.3096Z" fill="#122C65"/>
</g>
<path id="Vector_4" fillRule="evenodd" clipRule="evenodd" d="M4.59427 6.74655L5.29777 15.1138C5.3491 15.7578 5.87527 16.2408 6.5181 16.2408H19.2546C19.8624 16.2408 20.3816 15.7882 20.4679 15.1873L21.5763 7.53521C21.6019 7.35321 21.5564 7.17121 21.4456 7.02421C21.3359 6.87605 21.1749 6.78038 20.9929 6.75471C20.7491 6.76405 10.6306 6.75005 4.59427 6.74655ZM6.51577 17.9908C4.97927 17.9908 3.67844 16.7915 3.5536 15.2573L2.48494 2.54771L0.726769 2.24438C0.249603 2.16038 -0.0688974 1.70888 0.0127692 1.23171C0.0967692 0.754547 0.557603 0.444214 1.02427 0.518881L3.45094 0.938881C3.84177 1.00771 4.13927 1.33205 4.1731 1.72871L4.44727 4.99655C21.1026 5.00355 21.1563 5.01171 21.2368 5.02105C21.8866 5.11555 22.4583 5.45505 22.8479 5.97771C23.2376 6.49921 23.4009 7.14205 23.3076 7.78605L22.2004 15.437C21.9916 16.893 20.7269 17.9908 19.2569 17.9908H6.51577Z" fill="#122C65"/>
</g>
</svg>
