<svg width="15" height="15" viewBox="0 0 15 15" fill="none" xmlns="http://www.w3.org/2000/svg">
<g id="fi_14909932">
<g id="Booking">
<path id="Vector" d="M7.5 11.7511H2.44219C1.845 11.7511 1.35938 11.2655 1.35938 10.6683V3.75938C1.35938 3.16219 1.845 2.67656 2.44219 2.67656H3.46031V2.93156C3.46031 3.16453 3.64922 3.35344 3.88219 3.35344C4.11516 3.35344 4.30406 3.16453 4.30406 2.93156V2.67656H9.34969V2.93156C9.34969 3.16453 9.53859 3.35344 9.77156 3.35344C10.0045 3.35344 10.1934 3.16453 10.1934 2.93156V2.67656H11.2078C11.8045 2.67656 12.2906 3.16219 12.2906 3.75938V6.77344C12.2906 7.00641 12.4795 7.19531 12.7125 7.19531C12.9455 7.19531 13.1344 7.00641 13.1344 6.77344V3.75938C13.1344 2.69719 12.27 1.83281 11.2078 1.83281H10.1934V1.61719C10.1934 1.38422 10.0045 1.19531 9.77156 1.19531C9.53859 1.19531 9.34969 1.38422 9.34969 1.61719V1.83281H4.30406V1.61719C4.30406 1.38422 4.11516 1.19531 3.88219 1.19531C3.64922 1.19531 3.46031 1.38422 3.46031 1.61719V1.83281H2.44219C1.38 1.83281 0.515625 2.69719 0.515625 3.75938V10.6688C0.515625 11.7314 1.38 12.5953 2.44219 12.5953H7.5C7.73297 12.5953 7.92187 12.4064 7.92187 12.1734C7.92187 11.9405 7.73297 11.7511 7.5 11.7511Z" fill="#4B4B4B"/>
<path id="Vector_2" d="M3.79563 5.73828C3.52656 5.73828 3.30859 5.95625 3.30859 6.22531C3.30859 6.49437 3.52656 6.71234 3.79563 6.71234C4.06469 6.71234 4.28266 6.49437 4.28266 6.22531C4.28266 5.95625 4.06469 5.73828 3.79563 5.73828Z" fill="#4B4B4B"/>
<path id="Vector_3" d="M6.82687 5.73828C6.55781 5.73828 6.33984 5.95625 6.33984 6.22531C6.33984 6.49437 6.55781 6.71234 6.82687 6.71234C7.09594 6.71234 7.31391 6.49437 7.31391 6.22531C7.31391 5.95625 7.09547 5.73828 6.82687 5.73828Z" fill="#4B4B4B"/>
<path id="Vector_4" d="M9.37109 6.22531C9.37109 6.49437 9.58906 6.71234 9.85812 6.71234C10.1272 6.71234 10.3452 6.49437 10.3452 6.22531C10.3452 5.95625 10.1272 5.73828 9.85812 5.73828C9.58906 5.73828 9.37109 5.95625 9.37109 6.22531Z" fill="#4B4B4B"/>
<path id="Vector_5" d="M3.79563 8.39453C3.52656 8.39453 3.30859 8.6125 3.30859 8.88156C3.30859 9.15062 3.52656 9.36859 3.79563 9.36859C4.06469 9.36859 4.28266 9.15062 4.28266 8.88156C4.28266 8.6125 4.06469 8.39453 3.79563 8.39453Z" fill="#4B4B4B"/>
<path id="Vector_6" d="M6.82687 8.39453C6.55781 8.39453 6.33984 8.6125 6.33984 8.88156C6.33984 9.15062 6.55781 9.36859 6.82687 9.36859C7.09594 9.36859 7.31391 9.15062 7.31391 8.88156C7.31391 8.6125 7.09547 8.39453 6.82687 8.39453Z" fill="#4B4B4B"/>
<path id="Vector_7" d="M11.4894 7.8125C9.83703 7.8125 8.49219 9.15687 8.49219 10.8092C8.49219 12.4611 9.83656 13.8059 11.4894 13.8059C13.1422 13.8059 14.4866 12.4616 14.4866 10.8092C14.4861 9.15641 13.1417 7.8125 11.4894 7.8125ZM11.4894 12.9612C10.3025 12.9612 9.33641 11.9956 9.33641 10.8087C9.33641 9.62187 10.3025 8.65578 11.4894 8.65578C12.6762 8.65578 13.6423 9.62187 13.6423 10.8087C13.6423 11.9956 12.6762 12.9612 11.4894 12.9612Z" fill="#4B4B4B"/>
<path id="Vector_8" d="M12.0998 10.0425L11.1754 10.7873L10.9453 10.4934C10.8009 10.3101 10.537 10.2783 10.3528 10.4222C10.1695 10.5661 10.1376 10.8309 10.2815 11.0147L10.7756 11.6447C10.8449 11.7333 10.9471 11.7909 11.0592 11.8036C11.0751 11.8054 11.091 11.8064 11.1074 11.8064C11.2031 11.8064 11.2968 11.7736 11.3718 11.7131L12.629 10.7006C12.8109 10.5539 12.839 10.2886 12.6932 10.1072C12.547 9.92576 12.2812 9.89576 12.0998 10.0425Z" fill="#4B4B4B"/>
</g>
</g>
</svg>
