<svg width="28" height="28" viewBox="0 0 28 28" fill="none" xmlns="http://www.w3.org/2000/svg">
<g id="fi_7545004">
<g id="Group">
<path id="Vector" d="M7.71484 7.14118C7.71484 6.70725 8.06662 6.35547 8.50056 6.35547H11.6434C12.0774 6.35547 12.4291 6.70725 12.4291 7.14118C12.4291 7.57512 12.0774 7.9269 11.6434 7.9269H8.50056C8.06662 7.9269 7.71484 7.57512 7.71484 7.14118Z" fill="black"/>
<path id="Vector_2" d="M6.14118 7.92714C6.57512 7.92714 6.9269 7.57536 6.9269 7.14143C6.9269 6.70749 6.57512 6.35571 6.14118 6.35571C5.70725 6.35571 5.35547 6.70749 5.35547 7.14143C5.35547 7.57536 5.70725 7.92714 6.14118 7.92714Z" fill="black"/>
<path id="Vector_3" fillRule="evenodd" clipRule="evenodd" d="M5.35714 4C4.05533 4 3 5.05532 3 6.35714V22.0714C3 23.3733 4.05533 24.4286 5.35714 24.4286H22.6429C23.9447 24.4286 25 23.3733 25 22.0714V6.35714C25 5.05533 23.9447 4 22.6429 4H5.35714ZM23.4286 8.71429V6.35714C23.4286 5.92321 23.0768 5.57143 22.6429 5.57143H5.35714C4.9232 5.57143 4.57143 5.92321 4.57143 6.35714V8.71429H23.4286ZM4.57143 10.2857H23.4286V22.0714C23.4286 22.5054 23.0768 22.8571 22.6429 22.8571H5.35714C4.92321 22.8571 4.57143 22.5054 4.57143 22.0714V10.2857Z" fill="black"/>
</g>
</g>
</svg>
