<svg width="28" height="28" viewBox="0 0 28 28" fill="none" xmlns="http://www.w3.org/2000/svg">
<g id="fi_151917">
<g id="Group">
<path id="Vector" d="M24.7528 23.4869H8.03643C7.34747 23.4869 6.78906 22.9285 6.78906 22.2396C6.78906 21.5506 7.34747 20.9922 8.03643 20.9922H24.7524C25.4414 20.9922 25.9998 21.5506 25.9998 22.2396C25.9998 22.9285 25.4418 23.4869 24.7528 23.4869Z" fill="black"/>
<path id="Vector_2" d="M24.7528 15.6549H8.03643C7.34747 15.6549 6.78906 15.0965 6.78906 14.4075C6.78906 13.7186 7.34747 13.1602 8.03643 13.1602H24.7524C25.4414 13.1602 25.9998 13.7186 25.9998 14.4075C26.0002 15.0965 25.4418 15.6549 24.7528 15.6549Z" fill="black"/>
<path id="Vector_3" d="M24.7528 7.82677H8.03643C7.34747 7.82677 6.78906 7.26836 6.78906 6.5794C6.78906 5.89044 7.34747 5.33203 8.03643 5.33203H24.7524C25.4414 5.33203 25.9998 5.89044 25.9998 6.5794C25.9998 7.26836 25.4418 7.82677 24.7528 7.82677Z" fill="black"/>
<path id="Vector_4" d="M2.67532 8.35063C3.60057 8.35063 4.35063 7.60057 4.35063 6.67532C4.35063 5.75006 3.60057 5 2.67532 5C1.75006 5 1 5.75006 1 6.67532C1 7.60057 1.75006 8.35063 2.67532 8.35063Z" fill="black"/>
<path id="Vector_5" d="M2.67532 16.0811C3.60057 16.0811 4.35063 15.331 4.35063 14.4058C4.35063 13.4805 3.60057 12.7305 2.67532 12.7305C1.75006 12.7305 1 13.4805 1 14.4058C1 15.331 1.75006 16.0811 2.67532 16.0811Z" fill="black"/>
<path id="Vector_6" d="M2.67532 23.8194C3.60057 23.8194 4.35063 23.0693 4.35063 22.1441C4.35063 21.2188 3.60057 20.4688 2.67532 20.4688C1.75006 20.4688 1 21.2188 1 22.1441C1 23.0693 1.75006 23.8194 2.67532 23.8194Z" fill="black"/>
</g>
</g>
</svg>
