<svg width="28" height="28" viewBox="0 0 28 28" fill="none" xmlns="http://www.w3.org/2000/svg">
<g id="fi_446075">
<g id="Group 144">
<path id="Vector" d="M14.5 2C9.81307 2 6 5.77945 6 10.425C6 16.1903 13.6067 24.654 13.9305 25.0115C14.2347 25.3473 14.7658 25.3467 15.0695 25.0115C15.3933 24.654 23 16.1903 23 10.425C22.9999 5.77945 19.1869 2 14.5 2ZM14.5 23.3426C11.94 20.3284 7.53069 14.3818 7.53069 10.4251C7.53069 6.61602 10.6571 3.5172 14.5 3.5172C18.3429 3.5172 21.4693 6.61602 21.4693 10.425C21.4693 14.382 17.0607 20.3275 14.5 23.3426Z" fill="black"/>
<g id="Group">
<g id="Group_2">
<path id="Vector_2" d="M14.4371 6.25391C12.0615 6.25391 10.1289 8.18656 10.1289 10.5621C10.1289 12.9377 12.0616 14.8703 14.4371 14.8703C16.8126 14.8703 18.7452 12.9377 18.7452 10.5621C18.7452 8.18656 16.8126 6.25391 14.4371 6.25391ZM14.4371 13.3283C12.9118 13.3283 11.6709 12.0874 11.6709 10.5621C11.6709 9.03682 12.9118 7.79593 14.4371 7.79593C15.9623 7.79593 17.2032 9.03682 17.2032 10.5621C17.2032 12.0874 15.9623 13.3283 14.4371 13.3283Z" fill="black"/>
</g>
</g>
</g>
</g>
</svg>
