<svg width="15" height="15" viewBox="0 0 15 15" fill="none" xmlns="http://www.w3.org/2000/svg">
<g id="fi_54481" clip-path="url(#clip0_1310_8195)">
<g id="Group">
<g id="_x34__4_">
<g id="Group_2">
<path id="Vector" d="M13.8946 14.2096L10.2726 10.6603C11.217 9.62992 11.7958 8.26865 11.7927 6.77205C11.7856 3.57055 9.14325 0.981055 5.89012 0.987795C2.63698 0.994536 0.00537685 3.59496 0.0120105 6.79646C0.0186441 9.99797 2.66101 12.5875 5.91414 12.5807C7.31972 12.5778 8.60788 12.089 9.61883 11.2786L13.2548 14.8419C13.432 15.0157 13.719 15.0151 13.8955 14.8406C14.0723 14.6661 14.0717 14.3834 13.8946 14.2096ZM5.91229 11.6889C3.15979 11.6946 0.923901 9.50335 0.918288 6.79459C0.912675 4.08582 3.13946 1.88532 5.89196 1.87962C8.64449 1.87391 10.8804 4.06517 10.886 6.77393C10.8916 9.4827 8.66482 11.6832 5.91229 11.6889Z" fill="#727272"/>
</g>
</g>
</g>
</g>
<defs>
<clipPath id="clip0_1310_8195">
<rect width="14" height="14" fill="white" transform="translate(0 1) rotate(-0.118719)"/>
</clipPath>
</defs>
</svg>
