<svg width="28" height="28" viewBox="0 0 28 28" fill="none" xmlns="http://www.w3.org/2000/svg">
<g id="fi_17962563">
<g id="Layer 32">
<path id="Vector" d="M25.2612 22.1137C25.2612 22.9569 24.9263 23.7655 24.33 24.3618C23.7338 24.958 22.9251 25.293 22.0819 25.293C21.2387 25.293 20.4301 24.958 19.8338 24.3618C19.2376 23.7655 18.9026 22.9569 18.9026 22.1137C18.9061 21.8441 18.9443 21.5762 19.0162 21.3164L11.4949 17.1421C10.8779 17.9144 10.0362 18.4759 9.08618 18.7489C8.13616 19.022 7.12477 18.993 6.19191 18.6662C5.25905 18.3393 4.45081 17.7306 3.87898 16.9243C3.30716 16.118 3 15.154 3 14.1655C3 13.177 3.30716 12.213 3.87898 11.4067C4.45081 10.6004 5.25905 9.99175 6.19191 9.66488C7.12477 9.338 8.13616 9.30908 9.08618 9.5821C10.0362 9.85513 10.8779 10.4166 11.4949 11.1889L19.0161 7.01465C18.9442 6.75481 18.9061 6.48679 18.9026 6.2172C18.8982 5.47317 19.1534 4.75089 19.6241 4.17471C20.0949 3.59852 20.7518 3.20451 21.4818 3.06049C22.2118 2.91647 22.9691 3.03147 23.6234 3.38568C24.2778 3.73989 24.7881 4.31115 25.0666 5.00111C25.3451 5.69106 25.3744 6.45653 25.1493 7.16572C24.9243 7.87491 24.459 8.48344 23.8336 8.88654C23.2082 9.28964 22.4619 9.46209 21.723 9.37419C20.9842 9.28629 20.2991 8.94354 19.7858 8.40495L12.2667 12.5778C12.6366 13.6037 12.6366 14.7267 12.2667 15.7526L19.7858 19.9254C20.2226 19.4639 20.7879 19.1443 21.4085 19.0079C22.0291 18.8715 22.6764 18.9246 23.2665 19.1604C23.8565 19.3962 24.3622 19.8038 24.7178 20.3304C25.0735 20.857 25.2628 21.4782 25.2612 22.1137Z" fill="black"/>
</g>
</g>
</svg>
