<svg width="28" height="28" viewBox="0 0 28 28" fill="none" xmlns="http://www.w3.org/2000/svg">
<g id="star rating">
<path id="star-half" d="M25.1202 12.2625C25.2853 12.099 25.4015 11.8926 25.4559 11.6667C25.5102 11.4407 25.5004 11.2041 25.4277 10.9834C25.355 10.7627 25.2222 10.5666 25.0443 10.4172C24.8663 10.2678 24.6502 10.1709 24.4202 10.1375L18.8202 9.325C18.6181 9.2958 18.426 9.21799 18.2606 9.09824C18.0951 8.9785 17.9612 8.82039 17.8702 8.6375L15.4452 3.75C15.3356 3.5251 15.165 3.33553 14.9528 3.20292C14.7406 3.07031 14.4955 3 14.2452 3C13.995 3 13.7499 3.07031 13.5377 3.20292C13.3255 3.33553 13.1549 3.5251 13.0452 3.75L10.6202 8.6375C10.5293 8.82039 10.3954 8.9785 10.2299 9.09824C10.0644 9.21799 9.8724 9.2958 9.67025 9.325L4.07024 10.1375C3.84028 10.1709 3.62418 10.2678 3.44622 10.4172C3.26825 10.5666 3.13546 10.7627 3.06276 10.9834C2.99005 11.2041 2.98031 11.4407 3.03463 11.6667C3.08894 11.8926 3.20516 12.099 3.37024 12.2625L7.43274 16.2C7.57582 16.3413 7.68243 16.5152 7.7434 16.7068C7.80436 16.8985 7.81787 17.102 7.78274 17.3L6.85774 22.6875C6.8249 22.88 6.83458 23.0773 6.88612 23.2656C6.93766 23.4539 7.02981 23.6287 7.15608 23.7776C7.28235 23.9265 7.4397 24.0459 7.61706 24.1275C7.79443 24.2092 7.98751 24.251 8.18274 24.25C8.39957 24.2466 8.61297 24.1953 8.80774 24.1L13.6577 21.55C13.8404 21.4595 14.0414 21.4125 14.2452 21.4125C14.4491 21.4125 14.6501 21.4595 14.8327 21.55L19.6827 24.1C19.8775 24.1953 20.0909 24.2466 20.3077 24.25C20.503 24.251 20.6961 24.2092 20.8734 24.1275C21.0508 24.0459 21.2081 23.9265 21.3344 23.7776C21.4607 23.6287 21.5528 23.4539 21.6044 23.2656C21.6559 23.0773 21.6656 22.88 21.6327 22.6875L20.7077 17.3C20.6726 17.102 20.6861 16.8985 20.7471 16.7068C20.8081 16.5152 20.9147 16.3413 21.0577 16.2L25.1202 12.2625ZM19.7577 14.85C19.3947 15.2055 19.1233 15.6436 18.9665 16.1268C18.8098 16.6101 18.7725 17.1242 18.8577 17.625L19.5952 21.925L15.6952 19.8875C15.2476 19.6546 14.7498 19.5345 14.2452 19.5375V5.5375L16.1952 9.475C16.4186 9.9285 16.7496 10.3205 17.1592 10.6168C17.5688 10.9131 18.0446 11.1047 18.5452 11.175L22.8952 11.8125L19.7577 14.85Z" fill="black"/>
</g>
</svg>
