<svg width="28" height="28" viewBox="0 0 28 28" fill="none" xmlns="http://www.w3.org/2000/svg">
<g id="fi_15139729">
<g id="Group 145">
<path id="Vector" d="M19.2 26C19.6243 26 20.0313 25.8314 20.3314 25.5314C20.6314 25.2313 20.8 24.8243 20.8 24.4V3.6C20.8 3.17565 20.6314 2.76869 20.3314 2.46863C20.0313 2.16857 19.6243 2 19.2 2H9.6C9.17565 2 8.76869 2.16857 8.46863 2.46863C8.16857 2.76869 8 3.17565 8 3.6V24.4C8 24.8243 8.16857 25.2313 8.46863 25.5314C8.76869 25.8314 9.17565 26 9.6 26H19.2ZM9.6 2.8H19.2C19.4122 2.8 19.6157 2.88429 19.7657 3.03431C19.9157 3.18434 20 3.38783 20 3.6V9.2H8.8V3.6C8.8 3.38783 8.88429 3.18434 9.03431 3.03431C9.18434 2.88429 9.38783 2.8 9.6 2.8ZM8.8 24.4V10H20V24.4C20 24.6122 19.9157 24.8157 19.7657 24.9657C19.6157 25.1157 19.4122 25.2 19.2 25.2H9.6C9.38783 25.2 9.18434 25.1157 9.03431 24.9657C8.88429 24.8157 8.8 24.6122 8.8 24.4Z" fill="black"/>
<path id="Vector_2" d="M14.3969 14.0008C14.7133 14.0008 15.0227 13.9069 15.2858 13.7311C15.5489 13.5553 15.754 13.3054 15.8751 13.0131C15.9962 12.7207 16.0279 12.399 15.9661 12.0886C15.9044 11.7783 15.752 11.4932 15.5282 11.2694C15.3045 11.0456 15.0194 10.8933 14.709 10.8315C14.3986 10.7698 14.0769 10.8015 13.7846 10.9226C13.4922 11.0437 13.2423 11.2488 13.0665 11.5119C12.8907 11.775 12.7969 12.0843 12.7969 12.4008C12.7969 12.8251 12.9654 13.2321 13.2655 13.5322C13.5656 13.8322 13.9725 14.0008 14.3969 14.0008ZM14.3969 11.6008C14.5551 11.6008 14.7098 11.6477 14.8413 11.7356C14.9729 11.8235 15.0754 11.9485 15.136 12.0946C15.1965 12.2408 15.2124 12.4017 15.1815 12.5569C15.1506 12.712 15.0744 12.8546 14.9626 12.9665C14.8507 13.0783 14.7081 13.1545 14.5529 13.1854C14.3978 13.2163 14.2369 13.2004 14.0907 13.1399C13.9445 13.0793 13.8196 12.9768 13.7317 12.8452C13.6438 12.7137 13.5969 12.559 13.5969 12.4008C13.5969 12.1886 13.6812 11.9851 13.8312 11.8351C13.9812 11.6851 14.1847 11.6008 14.3969 11.6008Z" fill="black"/>
<path id="Vector_3" d="M14.3987 6.40156C14.4689 6.40163 14.5378 6.42017 14.5986 6.45532C14.6594 6.49047 14.7098 6.541 14.7449 6.60182C14.7799 6.66263 14.7983 6.73161 14.7983 6.80181C14.7983 6.872 14.7797 6.94095 14.7446 7.00173C14.7095 7.06251 14.659 7.11297 14.5982 7.14805C14.5374 7.18312 14.4684 7.20158 14.3982 7.20156C14.328 7.20154 14.259 7.18305 14.1983 7.14795C14.1375 7.11284 14.087 7.06236 14.0519 7.00156C13.9972 6.91312 13.9102 6.84947 13.8093 6.8241C13.7085 6.79872 13.6017 6.81363 13.5116 6.86565C13.4216 6.91767 13.3553 7.00272 13.3269 7.10277C13.2985 7.20281 13.3102 7.30998 13.3595 7.40156C13.5045 7.64522 13.7313 7.82949 13.9995 7.92156V8.00156C13.9995 8.10765 14.0416 8.20939 14.1166 8.2844C14.1917 8.35942 14.2934 8.40156 14.3995 8.40156C14.5056 8.40156 14.6073 8.35942 14.6823 8.2844C14.7573 8.20939 14.7995 8.10765 14.7995 8.00156V7.92796C15.0662 7.83401 15.2911 7.64867 15.4343 7.40478C15.5774 7.16088 15.6296 6.87419 15.5816 6.5955C15.5336 6.3168 15.3884 6.0641 15.1719 5.88217C14.9554 5.70024 14.6815 5.60084 14.3987 5.60156C14.3285 5.60149 14.2595 5.58295 14.1988 5.5478C14.138 5.51265 14.0876 5.46213 14.0525 5.40131C14.0175 5.34049 13.999 5.27152 13.9991 5.20132C13.9991 5.13112 14.0176 5.06217 14.0528 5.00139C14.0879 4.94062 14.1384 4.89016 14.1992 4.85508C14.26 4.82 14.329 4.80155 14.3992 4.80156C14.4694 4.80158 14.5383 4.82007 14.5991 4.85518C14.6599 4.89028 14.7104 4.94077 14.7455 5.00156C14.8002 5.09 14.8872 5.15366 14.9881 5.17903C15.0889 5.2044 15.1957 5.1895 15.2857 5.13747C15.3758 5.08545 15.442 5.0004 15.4704 4.90036C15.4989 4.80031 15.4872 4.69314 15.4379 4.60156C15.2931 4.35806 15.0666 4.1738 14.7987 4.08156V4.00156C14.7987 3.89548 14.7565 3.79373 14.6815 3.71872C14.6065 3.64371 14.5048 3.60156 14.3987 3.60156C14.2926 3.60156 14.1909 3.64371 14.1158 3.71872C14.0408 3.79373 13.9987 3.89548 13.9987 4.00156V4.07516C13.732 4.16909 13.5072 4.35437 13.364 4.59818C13.2209 4.84198 13.1686 5.12859 13.2165 5.40723C13.2644 5.68588 13.4094 5.93857 13.6258 6.12056C13.8422 6.30255 14.116 6.4021 14.3987 6.40156Z" fill="black"/>
<path id="Vector_4" d="M10.7984 15.6008H17.9984C18.1045 15.6008 18.2063 15.5586 18.2813 15.4836C18.3563 15.4086 18.3984 15.3069 18.3984 15.2008C18.3984 15.0947 18.3563 14.993 18.2813 14.9179C18.2063 14.8429 18.1045 14.8008 17.9984 14.8008H10.7984C10.6924 14.8008 10.5906 14.8429 10.5156 14.9179C10.4406 14.993 10.3984 15.0947 10.3984 15.2008C10.3984 15.3069 10.4406 15.4086 10.5156 15.4836C10.5906 15.5586 10.6924 15.6008 10.7984 15.6008Z" fill="black"/>
<path id="Vector_5" d="M17.9984 16.8008H12.7984C12.6924 16.8008 12.5906 16.8429 12.5156 16.9179C12.4406 16.993 12.3984 17.0947 12.3984 17.2008C12.3984 17.3069 12.4406 17.4086 12.5156 17.4836C12.5906 17.5586 12.6924 17.6008 12.7984 17.6008H17.9984C18.1045 17.6008 18.2063 17.5586 18.2813 17.4836C18.3563 17.4086 18.3984 17.3069 18.3984 17.2008C18.3984 17.0947 18.3563 16.993 18.2813 16.9179C18.2063 16.8429 18.1045 16.8008 17.9984 16.8008Z" fill="black"/>
<path id="Vector_6" d="M17.9984 18.3984H12.7984C12.6924 18.3984 12.5906 18.4406 12.5156 18.5156C12.4406 18.5906 12.3984 18.6924 12.3984 18.7984C12.3984 18.9045 12.4406 19.0063 12.5156 19.0813C12.5906 19.1563 12.6924 19.1984 12.7984 19.1984H17.9984C18.1045 19.1984 18.2063 19.1563 18.2813 19.0813C18.3563 19.0063 18.3984 18.9045 18.3984 18.7984C18.3984 18.6924 18.3563 18.5906 18.2813 18.5156C18.2063 18.4406 18.1045 18.3984 17.9984 18.3984Z" fill="black"/>
<path id="Vector_7" d="M17.9984 20H12.7984C12.6924 20 12.5906 20.0421 12.5156 20.1172C12.4406 20.1922 12.3984 20.2939 12.3984 20.4C12.3984 20.5061 12.4406 20.6078 12.5156 20.6828C12.5906 20.7579 12.6924 20.8 12.7984 20.8H17.9984C18.1045 20.8 18.2063 20.7579 18.2813 20.6828C18.3563 20.6078 18.3984 20.5061 18.3984 20.4C18.3984 20.2939 18.3563 20.1922 18.2813 20.1172C18.2063 20.0421 18.1045 20 17.9984 20Z" fill="black"/>
<path id="Vector_8" d="M17.9984 21.6016H12.7984C12.6924 21.6016 12.5906 21.6437 12.5156 21.7187C12.4406 21.7937 12.3984 21.8955 12.3984 22.0016C12.3984 22.1076 12.4406 22.2094 12.5156 22.2844C12.5906 22.3594 12.6924 22.4016 12.7984 22.4016H17.9984C18.1045 22.4016 18.2063 22.3594 18.2813 22.2844C18.3563 22.2094 18.3984 22.1076 18.3984 22.0016C18.3984 21.8955 18.3563 21.7937 18.2813 21.7187C18.2063 21.6437 18.1045 21.6016 17.9984 21.6016Z" fill="black"/>
<path id="Vector_9" d="M17.9984 23.1992H12.7984C12.6924 23.1992 12.5906 23.2414 12.5156 23.3164C12.4406 23.3914 12.3984 23.4931 12.3984 23.5992C12.3984 23.7053 12.4406 23.807 12.5156 23.8821C12.5906 23.9571 12.6924 23.9992 12.7984 23.9992H17.9984C18.1045 23.9992 18.2063 23.9571 18.2813 23.8821C18.3563 23.807 18.3984 23.7053 18.3984 23.5992C18.3984 23.4931 18.3563 23.3914 18.2813 23.3164C18.2063 23.2414 18.1045 23.1992 17.9984 23.1992Z" fill="black"/>
<path id="Vector_10" d="M10.7984 23.9992H11.1984C11.3045 23.9992 11.4063 23.9571 11.4813 23.8821C11.5563 23.807 11.5984 23.7053 11.5984 23.5992C11.5984 23.4931 11.5563 23.3914 11.4813 23.3164C11.4063 23.2414 11.3045 23.1992 11.1984 23.1992H10.7984C10.6924 23.1992 10.5906 23.2414 10.5156 23.3164C10.4406 23.3914 10.3984 23.4931 10.3984 23.5992C10.3984 23.7053 10.4406 23.807 10.5156 23.8821C10.5906 23.9571 10.6924 23.9992 10.7984 23.9992Z" fill="black"/>
<path id="Vector_11" d="M10.7984 22.4016H11.1984C11.3045 22.4016 11.4063 22.3594 11.4813 22.2844C11.5563 22.2094 11.5984 22.1076 11.5984 22.0016C11.5984 21.8955 11.5563 21.7937 11.4813 21.7187C11.4063 21.6437 11.3045 21.6016 11.1984 21.6016H10.7984C10.6924 21.6016 10.5906 21.6437 10.5156 21.7187C10.4406 21.7937 10.3984 21.8955 10.3984 22.0016C10.3984 22.1076 10.4406 22.2094 10.5156 22.2844C10.5906 22.3594 10.6924 22.4016 10.7984 22.4016Z" fill="black"/>
<path id="Vector_12" d="M10.7984 20.8H11.1984C11.3045 20.8 11.4063 20.7579 11.4813 20.6828C11.5563 20.6078 11.5984 20.5061 11.5984 20.4C11.5984 20.2939 11.5563 20.1922 11.4813 20.1172C11.4063 20.0421 11.3045 20 11.1984 20H10.7984C10.6924 20 10.5906 20.0421 10.5156 20.1172C10.4406 20.1922 10.3984 20.2939 10.3984 20.4C10.3984 20.5061 10.4406 20.6078 10.5156 20.6828C10.5906 20.7579 10.6924 20.8 10.7984 20.8Z" fill="black"/>
<path id="Vector_13" d="M10.7984 19.1984H11.1984C11.3045 19.1984 11.4063 19.1563 11.4813 19.0813C11.5563 19.0063 11.5984 18.9045 11.5984 18.7984C11.5984 18.6924 11.5563 18.5906 11.4813 18.5156C11.4063 18.4406 11.3045 18.3984 11.1984 18.3984H10.7984C10.6924 18.3984 10.5906 18.4406 10.5156 18.5156C10.4406 18.5906 10.3984 18.6924 10.3984 18.7984C10.3984 18.9045 10.4406 19.0063 10.5156 19.0813C10.5906 19.1563 10.6924 19.1984 10.7984 19.1984Z" fill="black"/>
<path id="Vector_14" d="M10.7984 17.6008H11.1984C11.3045 17.6008 11.4063 17.5586 11.4813 17.4836C11.5563 17.4086 11.5984 17.3069 11.5984 17.2008C11.5984 17.0947 11.5563 16.993 11.4813 16.9179C11.4063 16.8429 11.3045 16.8008 11.1984 16.8008H10.7984C10.6924 16.8008 10.5906 16.8429 10.5156 16.9179C10.4406 16.993 10.3984 17.0947 10.3984 17.2008C10.3984 17.3069 10.4406 17.4086 10.5156 17.4836C10.5906 17.5586 10.6924 17.6008 10.7984 17.6008Z" fill="black"/>
</g>
</g>
</svg>
